<?xml version="1.0" encoding="utf-8"?>
<!-- Generator: Adobe Illustrator 24.3.0, SVG Export Plug-In . SVG Version: 6.00 Build 0)  -->
<svg version="1.1" id="Layer_1" xmlns="http://www.w3.org/2000/svg" xmlns:xlink="http://www.w3.org/1999/xlink" x="0px" y="0px"
	 viewBox="0 0 489.36 185.82" style="enable-background:new 0 0 489.36 185.82;" xml:space="preserve">
<style type="text/css">
	.st0{fill:#098373;}
	.st1{fill:#DAA627;}
	.st2{fill:#6FBA90;}
</style>
<g>
	<g>
		<g>
			<g>
				<path class="st0" d="M134.28,70.07c-2.91-5.24-10.1-7.52-20.23-6.42c-9.51,1.04-20.72,4.92-31.56,10.93
					c-23.29,12.91-37.02,31.15-31.27,41.54c2.48,4.47,8.11,6.65,15.58,6.65c3.62,0,7.68-0.52,12.01-1.53
					c-0.42-1.29-0.8-2.63-1.16-4.01c-11.65,2.7-20.24,1.34-22.73-3.15c-3.97-7.16,6.99-23.24,29.62-35.79
					c10.36-5.74,21-9.44,29.97-10.42c1.52-0.17,2.97-0.25,4.32-0.25c5.94,0,10.12,1.58,11.75,4.51c2,3.61,0.21,9.4-4.9,15.89
					c-5.58,7.09-14.36,14.15-24.72,19.89c-6.83,3.79-13.36,6.48-19.27,8.23c0.36,1.4,0.74,2.74,1.16,4.02
					c6.39-1.87,13.25-4.71,20.17-8.55c10.84-6.01,20.07-13.46,25.99-20.98C135.31,82.61,137.19,75.31,134.28,70.07z"/>
			</g>
			<g>
				<path class="st0" d="M122.6,96.33c1.06-0.99,2.06-1.98,3.01-2.98c-5.47-6.45-12.96-12.8-21.64-18.22
					c-0.86-0.54-1.72-1.06-2.58-1.56c-1.65,0.62-3.32,1.29-4.99,2.02c1.76,0.96,3.53,2,5.33,3.13
					C110.16,83.99,117.4,90.14,122.6,96.33z"/>
				<path class="st0" d="M96.6,70.92c-4.61-2.4-9.14-4.34-13.45-5.78c-0.43,1.27-0.84,2.61-1.22,4.01c3.08,1.04,6.33,2.37,9.71,3.99
					C93.29,72.35,94.94,71.61,96.6,70.92z"/>
				<path class="st0" d="M83.77,107.45c-6.53-4.08-11.98-8.41-16.34-12.68c-1.04,1.04-1.97,2.06-2.86,3.08
					c4.68,4.58,10.4,9.08,16.96,13.18c2.89,1.8,5.81,3.43,8.73,4.9c1.72-0.64,3.48-1.35,5.28-2.15
					C91.63,112.01,87.67,109.89,83.77,107.45z"/>
				<path class="st0" d="M128.26,96.7c-0.96,1-1.98,1.99-3.05,2.98c0.05,0.07,0.11,0.14,0.16,0.21c4.77,6.75,6.25,12.63,4.06,16.13
					c-2.18,3.5-8.11,4.75-16.28,3.42c-3.87-0.63-8.03-1.81-12.31-3.43c-1.79,0.87-3.57,1.66-5.33,2.4
					c5.9,2.55,11.68,4.35,16.97,5.21c2.35,0.38,4.56,0.57,6.59,0.57c6.66,0,11.52-2.03,13.95-5.92c3.18-5.08,1.69-12.47-4.2-20.81
					C128.65,97.2,128.44,96.95,128.26,96.7z"/>
				<path class="st0" d="M64.52,91.78c-8.15-8.96-11.2-17.23-8.46-21.62c1.61-2.58,5.31-3.96,10.46-3.96
					c3.27,0,7.14,0.56,11.41,1.72c0.38-1.38,0.78-2.72,1.22-3.99c-12.57-3.4-22.77-2.26-26.68,3.99c-4.06,6.5-0.17,16.71,9.18,26.92
					C62.55,93.82,63.51,92.8,64.52,91.78z"/>
			</g>
			<g>
				<path class="st0" d="M92.75,140.58c-11.87,0-21.17-20.86-21.17-47.49c0-26.63,9.3-47.49,21.17-47.49s21.17,20.86,21.17,47.49
					C113.92,119.72,104.62,140.58,92.75,140.58z M92.75,49.83c-8.18,0-16.94,17.38-16.94,43.26c0,25.88,8.76,43.26,16.94,43.26
					c8.18,0,16.94-17.38,16.94-43.26C109.69,67.21,100.93,49.83,92.75,49.83z"/>
			</g>
			<g>
				<path class="st0" d="M92.75,140.58c-11.87,0-21.17-20.86-21.17-47.49c0-26.63,9.3-47.49,21.17-47.49s21.17,20.86,21.17,47.49
					C113.92,119.72,104.62,140.58,92.75,140.58z M92.75,49.83c-8.18,0-16.94,17.38-16.94,43.26c0,25.88,8.76,43.26,16.94,43.26
					c8.18,0,16.94-17.38,16.94-43.26C109.69,67.21,100.93,49.83,92.75,49.83z"/>
			</g>
			<circle class="st0" cx="81.44" cy="55.41" r="5.49"/>
			<circle class="st0" cx="52.66" cy="106.7" r="5.49"/>
			<circle class="st0" cx="120.78" cy="122" r="5.49"/>
			<path class="st1" d="M101.05,89.25c-0.09-0.16-0.27-0.26-0.45-0.26h-6.81l1.14-8.73c0.03-0.29-0.18-0.54-0.47-0.57
				c-0.2-0.02-0.39,0.07-0.49,0.23l-8.29,14.52c-0.15,0.24-0.07,0.57,0.17,0.72c0.08,0.05,0.18,0.08,0.27,0.08h6.71l-0.91,8.74
				c-0.02,0.29,0.19,0.54,0.48,0.56c0.19,0.01,0.38-0.08,0.48-0.24l8.15-14.52C101.14,89.61,101.15,89.41,101.05,89.25L101.05,89.25
				z"/>
		</g>
	</g>
	<g>
		<g>
			<path class="st0" d="M159.63,111.29c-2.45-2.21-3.68-5.3-3.68-9.27v-29.4c0-1.02,0.9-1.53,2.7-1.53h1.29c1.8,0,2.7,0.51,2.7,1.53
				v29.34c0,2.05,0.69,3.72,2.06,5.03c1.37,1.31,3.14,1.96,5.31,1.96c2.17,0,3.93-0.65,5.28-1.96c1.35-1.31,2.02-2.99,2.02-5.03
				V72.62c0-1.02,0.9-1.53,2.7-1.53h1.29c1.8,0,2.7,0.51,2.7,1.53v29.4c0,3.97-1.23,7.06-3.68,9.27c-2.45,2.21-5.89,3.31-10.31,3.31
				C165.54,114.61,162.09,113.5,159.63,111.29z"/>
		</g>
		<g>
			<path class="st0" d="M193.44,112.73c-1.39-1.25-2.09-3.32-2.09-6.23V87.29h-1.6c-0.49,0-0.85-0.17-1.07-0.52
				c-0.23-0.35-0.34-0.91-0.34-1.69v-0.8c0-0.78,0.11-1.34,0.34-1.69c0.22-0.35,0.58-0.52,1.07-0.52h1.6l0.8-6.26
				c0.08-1.02,0.86-1.53,2.33-1.53h0.98c1.47,0,2.21,0.51,2.21,1.53v6.26h3.56c0.49,0,0.84,0.17,1.05,0.52
				c0.2,0.35,0.31,0.91,0.31,1.69v0.8c0,0.78-0.1,1.34-0.31,1.69c-0.21,0.35-0.55,0.52-1.05,0.52h-3.56v18.72
				c0,1.27,0.18,2.15,0.55,2.64c0.37,0.49,0.9,0.74,1.6,0.74c0.41,0,0.8-0.05,1.17-0.15c0.37-0.1,0.64-0.15,0.8-0.15
				c0.41,0,0.74,0.44,1.01,1.32c0.26,0.88,0.4,1.57,0.4,2.06c0,0.78-0.51,1.33-1.53,1.66c-1.02,0.33-2.09,0.49-3.19,0.49
				C196.51,114.61,194.83,113.98,193.44,112.73z"/>
		</g>
		<g>
			<path class="st0" d="M207.68,75.87v-3.25c0-1.02,1.06-1.53,3.19-1.53c2.13,0,3.19,0.51,3.19,1.53v3.25
				c0,1.02-1.06,1.53-3.19,1.53C208.74,77.41,207.68,76.9,207.68,75.87z M207.68,112.76V83.49c0-1.02,0.94-1.53,2.82-1.53h0.62
				c1.88,0,2.82,0.51,2.82,1.53v29.28c0,1.02-0.94,1.53-2.82,1.53h-0.62C208.62,114.3,207.68,113.79,207.68,112.76z"/>
		</g>
		<g>
			<path class="st0" d="M222.3,112.76c-1.33-1.23-1.99-3.27-1.99-6.14V69.49c0-1.02,0.92-1.53,2.76-1.53h0.67
				c1.88,0,2.82,0.51,2.82,1.53v36.83c0,2.05,0.68,3.07,2.03,3.07c0.41,0,0.77-0.05,1.07-0.15c0.31-0.1,0.54-0.15,0.7-0.15
				c0.41,0,0.76,0.42,1.05,1.26c0.28,0.84,0.43,1.55,0.43,2.12c0,0.74-0.5,1.28-1.5,1.63c-1,0.35-2.06,0.52-3.16,0.52
				C225.26,114.61,223.63,113.99,222.3,112.76z"/>
		</g>
		<g>
			<path class="st0" d="M235.47,75.87v-3.25c0-1.02,1.06-1.53,3.19-1.53c2.13,0,3.19,0.51,3.19,1.53v3.25
				c0,1.02-1.06,1.53-3.19,1.53C236.54,77.41,235.47,76.9,235.47,75.87z M235.47,112.76V83.49c0-1.02,0.94-1.53,2.82-1.53h0.62
				c1.88,0,2.82,0.51,2.82,1.53v29.28c0,1.02-0.94,1.53-2.82,1.53h-0.62C236.41,114.3,235.47,113.79,235.47,112.76z"/>
		</g>
		<g>
			<path class="st0" d="M251.27,112.73c-1.39-1.25-2.09-3.32-2.09-6.23V87.29h-1.6c-0.49,0-0.85-0.17-1.07-0.52
				c-0.23-0.35-0.34-0.91-0.34-1.69v-0.8c0-0.78,0.11-1.34,0.34-1.69c0.22-0.35,0.58-0.52,1.07-0.52h1.6l0.8-6.26
				c0.08-1.02,0.86-1.53,2.33-1.53h0.98c1.47,0,2.21,0.51,2.21,1.53v6.26h3.56c0.49,0,0.84,0.17,1.05,0.52
				c0.2,0.35,0.31,0.91,0.31,1.69v0.8c0,0.78-0.1,1.34-0.31,1.69c-0.21,0.35-0.55,0.52-1.05,0.52h-3.56v18.72
				c0,1.27,0.18,2.15,0.55,2.64c0.37,0.49,0.9,0.74,1.6,0.74c0.41,0,0.8-0.05,1.17-0.15c0.37-0.1,0.64-0.15,0.8-0.15
				c0.41,0,0.74,0.44,1.01,1.32c0.26,0.88,0.4,1.57,0.4,2.06c0,0.78-0.51,1.33-1.53,1.66c-1.02,0.33-2.09,0.49-3.19,0.49
				C254.34,114.61,252.66,113.98,251.27,112.73z"/>
		</g>
		<g>
			<path class="st0" d="M285.83,83.06c0,0.16-0.06,0.53-0.18,1.1l-11.54,41.43c-0.29,0.86-1.21,1.29-2.76,1.29h-1.23
				c-1.6,0-2.39-0.35-2.39-1.04c0-0.24,0.06-0.59,0.18-1.04l4.23-14.06c-0.65-0.08-1.08-0.41-1.29-0.98l-7.8-25.47
				c-0.17-0.74-0.25-1.13-0.25-1.17c0-0.78,0.86-1.17,2.58-1.17h1.41c1.47,0,2.29,0.37,2.46,1.1l3.87,15.41
				c0.21,0.82,0.59,2.66,1.17,5.52h0.31l0.49-2.33l0.61-3.19l3.87-15.47c0.16-0.7,1.02-1.04,2.58-1.04h1.05
				C284.95,81.95,285.83,82.32,285.83,83.06z"/>
		</g>
		<g>
			<path class="st2" d="M317.57,92.26V110c0,1.51-1.18,2.66-3.53,3.44c-2.35,0.78-4.96,1.17-7.83,1.17c-5.28,0-9.24-1.78-11.88-5.34
				c-2.64-3.56-3.96-9-3.96-16.33c0-7.49,1.35-13.05,4.05-16.7c2.7-3.64,6.77-5.46,12.22-5.46c1.6,0,3.19,0.21,4.79,0.61
				c1.6,0.41,2.89,0.93,3.9,1.56c1,0.64,1.5,1.24,1.5,1.81c0,0.65-0.32,1.5-0.95,2.55c-0.64,1.04-1.2,1.57-1.69,1.57
				c-0.12,0-0.55-0.2-1.29-0.61c-0.74-0.41-1.6-0.78-2.58-1.1c-0.98-0.33-2.13-0.49-3.44-0.49c-3.4,0-5.85,1.33-7.36,3.99
				c-1.51,2.66-2.27,6.63-2.27,11.91c0,10.84,3.03,16.27,9.09,16.27c1.68,0,3.23-0.2,4.66-0.61V95.88h-4.66
				c-0.9,0-1.35-0.74-1.35-2.21v-1.23c0-1.47,0.45-2.21,1.35-2.21h9.39C316.96,90.24,317.57,90.91,317.57,92.26z"/>
		</g>
		<g>
			<path class="st2" d="M326.02,110.55c-2.17-2.7-3.25-6.77-3.25-12.22c0-5.61,1.05-9.79,3.16-12.55c2.11-2.76,5.15-4.14,9.12-4.14
				c3.68,0,6.43,1.38,8.25,4.14c1.82,2.76,2.73,6.78,2.73,12.06c0,0.41-0.31,0.98-0.92,1.72c-0.61,0.74-1.1,1.1-1.47,1.1h-14.24
				c0.16,3.07,0.77,5.29,1.81,6.66c1.04,1.37,2.63,2.06,4.76,2.06c1.35,0,2.48-0.18,3.37-0.55c0.9-0.37,1.67-0.77,2.3-1.2
				c0.63-0.43,1.01-0.64,1.14-0.64c0.49,0,1.02,0.47,1.6,1.41c0.57,0.94,0.86,1.66,0.86,2.15c0,0.61-0.46,1.24-1.38,1.87
				c-0.92,0.64-2.11,1.16-3.56,1.57c-1.45,0.41-2.91,0.61-4.39,0.61C331.48,114.61,328.18,113.25,326.02,110.55z M339.7,95.95
				c0-3.11-0.39-5.42-1.17-6.94c-0.78-1.51-1.98-2.27-3.62-2.27c-1.76,0-3.09,0.74-3.99,2.21c-0.9,1.47-1.43,3.81-1.6,7H339.7z"/>
		</g>
		<g>
			<path class="st2" d="M350.98,112.76V91.71c0-2.7-0.1-4.66-0.31-5.89c-0.21-1.23-0.31-1.92-0.31-2.09c0-0.53,0.56-0.93,1.69-1.2
				c1.12-0.27,2.07-0.4,2.85-0.4c0.65,0,1.09,0.26,1.32,0.77c0.23,0.51,0.4,1.13,0.52,1.84s0.2,1.24,0.25,1.56
				c0.94-1.43,2.08-2.57,3.44-3.41c1.35-0.84,2.82-1.26,4.42-1.26c2.45,0,4.34,0.82,5.65,2.46c1.31,1.64,1.97,3.93,1.97,6.87v21.79
				c0,1.02-0.88,1.53-2.64,1.53h-1.05c-1.84,0-2.76-0.51-2.76-1.53V91.89c0-3.23-1.25-4.85-3.75-4.85c-0.98,0-1.9,0.33-2.76,0.98
				c-0.86,0.65-1.58,1.53-2.15,2.64v22.1c0,1.02-0.88,1.53-2.64,1.53h-1.1C351.86,114.3,350.98,113.79,350.98,112.76z"/>
		</g>
		<g>
			<path class="st2" d="M378.57,75.87v-3.25c0-1.02,1.06-1.53,3.19-1.53c2.13,0,3.19,0.51,3.19,1.53v3.25
				c0,1.02-1.06,1.53-3.19,1.53C379.64,77.41,378.57,76.9,378.57,75.87z M378.57,112.76V83.49c0-1.02,0.94-1.53,2.82-1.53h0.61
				c1.88,0,2.82,0.51,2.82,1.53v29.28c0,1.02-0.94,1.53-2.82,1.53h-0.61C379.51,114.3,378.57,113.79,378.57,112.76z"/>
		</g>
		<g>
			<path class="st2" d="M392.97,112.37c-1.35-1.53-2.02-3.71-2.02-6.54V83.55c0-1.02,0.88-1.53,2.64-1.53h1.04
				c1.8,0,2.7,0.51,2.7,1.53v21.18c0,1.47,0.32,2.6,0.95,3.38c0.64,0.78,1.56,1.17,2.79,1.17c1.02,0,1.96-0.33,2.82-0.98
				c0.86-0.65,1.57-1.53,2.15-2.64v-22.1c0-1.02,0.88-1.53,2.64-1.53h1.1c1.76,0,2.64,0.51,2.64,1.53v21.05
				c0,2.7,0.1,4.66,0.31,5.89c0.2,1.23,0.31,1.94,0.31,2.15c0,0.53-0.55,0.92-1.66,1.17c-1.1,0.25-2.07,0.37-2.89,0.37
				c-0.65,0-1.1-0.26-1.32-0.77c-0.23-0.51-0.4-1.12-0.52-1.84c-0.12-0.72-0.2-1.24-0.24-1.57c-0.94,1.43-2.08,2.57-3.41,3.41
				c-1.33,0.84-2.77,1.26-4.33,1.26C396.22,114.67,394.32,113.9,392.97,112.37z"/>
		</g>
		<g>
			<path class="st2" d="M421.05,114.15c-1.29-0.39-2.33-0.89-3.13-1.5c-0.8-0.61-1.2-1.21-1.2-1.78c0-0.57,0.31-1.33,0.92-2.27
				c0.62-0.94,1.13-1.41,1.54-1.41c0.12,0,0.49,0.2,1.1,0.61c0.61,0.41,1.28,0.77,1.99,1.07c0.72,0.31,1.52,0.46,2.43,0.46
				c1.31,0,2.31-0.33,3.01-0.98c0.69-0.65,1.04-1.62,1.04-2.88c0-1.31-0.41-2.39-1.23-3.25c-0.82-0.86-2.07-1.72-3.74-2.58
				c-2.09-0.98-3.67-2.15-4.76-3.5c-1.09-1.35-1.63-3.17-1.63-5.46c0-2.74,0.87-4.93,2.61-6.57c1.74-1.64,3.98-2.46,6.72-2.46
				c1.76,0,3.39,0.28,4.88,0.83c1.49,0.55,2.24,1.24,2.24,2.06c0,0.57-0.26,1.35-0.77,2.33c-0.51,0.98-0.95,1.47-1.32,1.47
				c-0.08,0-0.55-0.23-1.41-0.71c-0.86-0.47-1.84-0.71-2.95-0.71s-2.01,0.29-2.7,0.86c-0.7,0.57-1.05,1.37-1.05,2.39
				c0,1.27,0.39,2.29,1.17,3.07c0.78,0.78,1.92,1.6,3.44,2.46c2.25,1.06,3.93,2.31,5.04,3.74c1.1,1.43,1.66,3.36,1.66,5.77
				c0,2.82-0.92,5.12-2.76,6.88c-1.84,1.76-4.2,2.64-7.06,2.64C423.7,114.73,422.34,114.53,421.05,114.15z"/>
		</g>
	</g>
</g>
</svg>
